<svg width="18" height="19" viewBox="0 0 18 19" fill="none" xmlns="http://www.w3.org/2000/svg">
<g opacity="0.5">
<path d="M10.0575 9.50002L14.7825 4.78252C14.9237 4.64129 15.0031 4.44974 15.0031 4.25002C15.0031 4.05029 14.9237 3.85874 14.7825 3.71752C14.6413 3.57629 14.4497 3.49695 14.25 3.49695C14.0503 3.49695 13.8587 3.57629 13.7175 3.71752L9.00002 8.44252L4.28252 3.71752C4.14129 3.57629 3.94974 3.49695 3.75002 3.49695C3.55029 3.49695 3.35874 3.57629 3.21752 3.71752C3.07629 3.85874 2.99695 4.05029 2.99695 4.25002C2.99695 4.44974 3.07629 4.64129 3.21752 4.78252L7.94252 9.50002L3.21752 14.2175C3.14722 14.2872 3.09142 14.3702 3.05335 14.4616C3.01527 14.553 2.99567 14.651 2.99567 14.75C2.99567 14.849 3.01527 14.9471 3.05335 15.0384C3.09142 15.1298 3.14722 15.2128 3.21752 15.2825C3.28724 15.3528 3.37019 15.4086 3.46158 15.4467C3.55298 15.4848 3.65101 15.5044 3.75002 15.5044C3.84902 15.5044 3.94705 15.4848 4.03845 15.4467C4.12984 15.4086 4.21279 15.3528 4.28252 15.2825L9.00002 10.5575L13.7175 15.2825C13.7872 15.3528 13.8702 15.4086 13.9616 15.4467C14.053 15.4848 14.151 15.5044 14.25 15.5044C14.349 15.5044 14.4471 15.4848 14.5384 15.4467C14.6298 15.4086 14.7128 15.3528 14.7825 15.2825C14.8528 15.2128 14.9086 15.1298 14.9467 15.0384C14.9848 14.9471 15.0044 14.849 15.0044 14.75C15.0044 14.651 14.9848 14.553 14.9467 14.4616C14.9086 14.3702 14.8528 14.2872 14.7825 14.2175L10.0575 9.50002Z" fill="#1C274C"/>
</g>
</svg>
