<svg width="20" height="20" viewBox="0 0 20 20" fill="none" xmlns="http://www.w3.org/2000/svg">
<path opacity="0.5" d="M18.3333 9.99984C18.3333 14.6022 14.6023 18.3332 9.99996 18.3332C5.39758 18.3332 1.66663 14.6022 1.66663 9.99984C1.66663 5.39746 5.39758 1.6665 9.99996 1.6665C14.6023 1.6665 18.3333 5.39746 18.3333 9.99984Z" fill="white"/>
<circle cx="17" cy="3" r="3" fill="#FF8800"/>
<path d="M10 6.4585C9.48225 6.4585 9.0625 6.87823 9.0625 7.396C9.0625 7.74117 8.78267 8.021 8.4375 8.021C8.09233 8.021 7.8125 7.74117 7.8125 7.396C7.8125 6.18787 8.79192 5.2085 10 5.2085C11.2081 5.2085 12.1875 6.18787 12.1875 7.396C12.1875 7.98836 11.9513 8.52683 11.5692 8.92016C11.4923 8.99925 11.4189 9.07258 11.3489 9.1425C11.1691 9.32216 11.0115 9.47958 10.8733 9.65725C10.6908 9.89175 10.625 10.0642 10.625 10.2085V10.8335C10.625 11.1787 10.3452 11.4585 10 11.4585C9.65483 11.4585 9.375 11.1787 9.375 10.8335V10.2085C9.375 9.6625 9.62917 9.2205 9.88683 8.8895C10.0774 8.64458 10.317 8.40541 10.5115 8.21138C10.5702 8.15284 10.6247 8.0984 10.6725 8.04914C10.8372 7.87969 10.9375 7.6502 10.9375 7.396C10.9375 6.87823 10.5178 6.4585 10 6.4585Z" fill="white"/>
<path d="M9.99996 14.1667C10.4602 14.1667 10.8333 13.7936 10.8333 13.3333C10.8333 12.8731 10.4602 12.5 9.99996 12.5C9.53971 12.5 9.16663 12.8731 9.16663 13.3333C9.16663 13.7936 9.53971 14.1667 9.99996 14.1667Z" fill="white"/>
</svg>
