<svg width="20" height="20" viewBox="0 0 20 20" fill="none" xmlns="http://www.w3.org/2000/svg">
<path opacity="0.5" d="M18.3333 9.99996C18.3333 14.6023 14.6023 18.3333 9.99996 18.3333C5.39758 18.3333 1.66663 14.6023 1.66663 9.99996C1.66663 5.39758 5.39758 1.66663 9.99996 1.66663C14.6023 1.66663 18.3333 5.39758 18.3333 9.99996Z" fill="#1C274C"/>
<circle cx="17" cy="3" r="3" fill="#FF8800"/>
<path d="M10 6.45837C9.48225 6.45837 9.0625 6.87811 9.0625 7.39587C9.0625 7.74105 8.78267 8.02087 8.4375 8.02087C8.09233 8.02087 7.8125 7.74105 7.8125 7.39587C7.8125 6.18775 8.79192 5.20837 10 5.20837C11.2081 5.20837 12.1875 6.18775 12.1875 7.39587C12.1875 7.98824 11.9513 8.52671 11.5692 8.92004C11.4923 8.99912 11.4189 9.07246 11.3489 9.14237C11.1691 9.32204 11.0115 9.47946 10.8733 9.65712C10.6908 9.89162 10.625 10.064 10.625 10.2084V10.8334C10.625 11.1785 10.3452 11.4584 10 11.4584C9.65483 11.4584 9.375 11.1785 9.375 10.8334V10.2084C9.375 9.66237 9.62917 9.22037 9.88683 8.88937C10.0774 8.64446 10.317 8.40529 10.5115 8.21126C10.5702 8.15272 10.6247 8.09828 10.6725 8.04902C10.8372 7.87957 10.9375 7.65007 10.9375 7.39587C10.9375 6.87811 10.5178 6.45837 10 6.45837Z" fill="#1C274C"/>
<path d="M9.99996 14.1667C10.4602 14.1667 10.8333 13.7936 10.8333 13.3333C10.8333 12.8731 10.4602 12.5 9.99996 12.5C9.53971 12.5 9.16663 12.8731 9.16663 13.3333C9.16663 13.7936 9.53971 14.1667 9.99996 14.1667Z" fill="#1C274C"/>
</svg>
