<svg width="20" height="20" viewBox="0 0 20 20" fill="none" xmlns="http://www.w3.org/2000/svg">
<path opacity="0.5" d="M1.66663 9.99984C1.66663 6.07146 1.66663 4.10728 2.88702 2.8869C4.1074 1.6665 6.07158 1.6665 9.99996 1.6665C13.9283 1.6665 15.8925 1.6665 17.1129 2.8869C18.3333 4.10728 18.3333 6.07146 18.3333 9.99984C18.3333 13.9282 18.3333 15.8924 17.1129 17.1128C15.8925 18.3332 13.9283 18.3332 9.99996 18.3332C6.07158 18.3332 4.1074 18.3332 2.88702 17.1128C1.66663 15.8924 1.66663 13.9282 1.66663 9.99984Z" fill="white"/>
<circle cx="17" cy="3" r="3" fill="#FF8800"/>
<path d="M11.24 5.37155C11.5735 5.46088 11.7713 5.8036 11.682 6.13702L9.52513 14.1864C9.43579 14.5198 9.09304 14.7177 8.75963 14.6284C8.42621 14.539 8.22838 14.1963 8.31772 13.8629L10.4745 5.81349C10.5639 5.48008 10.9066 5.28221 11.24 5.37155Z" fill="white"/>
<path d="M12.4748 7.05806C12.7189 6.81398 13.1146 6.81398 13.3586 7.05806L13.5323 7.23167C14.0617 7.76108 14.5032 8.20256 14.8066 8.60016C15.1268 9.01983 15.3514 9.46325 15.3514 10C15.3514 10.5367 15.1268 10.9802 14.8066 11.3998C14.5032 11.7974 14.0617 12.2389 13.5323 12.7683L13.3586 12.9419C13.1146 13.186 12.7189 13.186 12.4748 12.9419C12.2307 12.6978 12.2307 12.3022 12.4748 12.0581L12.6177 11.9151C13.1858 11.347 13.5665 10.9645 13.8128 10.6416C14.0481 10.3332 14.1014 10.1536 14.1014 10C14.1014 9.84641 14.0481 9.66683 13.8128 9.35841C13.5665 9.0355 13.1858 8.653 12.6177 8.08492L12.4748 7.94194C12.2307 7.69786 12.2307 7.30214 12.4748 7.05806Z" fill="white"/>
<path d="M6.64151 7.05806C6.88559 6.81398 7.28131 6.81398 7.5254 7.05806C7.76947 7.30214 7.76947 7.69786 7.5254 7.94194L7.38241 8.08492C6.81437 8.653 6.43373 9.0355 6.18736 9.35841C5.952 9.66683 5.8988 9.84641 5.8988 10C5.8988 10.1536 5.952 10.3332 6.18736 10.6416C6.43373 10.9645 6.81437 11.347 7.38241 11.9151L7.5254 12.0581C7.76947 12.3022 7.76947 12.6978 7.5254 12.9419C7.28131 13.186 6.88559 13.186 6.64151 12.9419L6.46789 12.7683C5.93844 12.2389 5.49695 11.7974 5.19359 11.3998C4.87339 10.9802 4.6488 10.5367 4.6488 10C4.6488 9.46325 4.87339 9.01983 5.19359 8.60016C5.49695 8.20256 5.93844 7.76109 6.46789 7.23167L6.64151 7.05806Z" fill="white"/>
</svg>
