<svg width="20" height="20" viewBox="0 0 20 20" fill="none" xmlns="http://www.w3.org/2000/svg">
<path opacity="0.5" d="M1.66663 5.79142C1.66663 5.05598 1.66663 4.68825 1.72442 4.38195C1.97883 3.03355 3.03355 1.97883 4.38195 1.72442C4.68825 1.66663 5.05598 1.66663 5.79142 1.66663C6.11364 1.66663 6.27476 1.66663 6.4296 1.68111C7.09717 1.74353 7.73039 2.00583 8.24658 2.43372C8.36629 2.53297 8.48021 2.6469 8.70804 2.87475L9.16663 3.33329C9.84646 4.01311 10.1864 4.35302 10.5934 4.57948C10.817 4.70388 11.0542 4.80213 11.3003 4.87228C11.7482 4.99996 12.2289 4.99996 13.1903 4.99996H13.5017C15.6954 4.99996 16.7921 4.99996 17.5051 5.64118C17.5707 5.70016 17.6331 5.76258 17.692 5.82815C18.3333 6.54108 18.3333 7.63791 18.3333 9.83154V11.6666C18.3333 14.8093 18.3333 16.3807 17.357 17.357C16.3807 18.3333 14.8093 18.3333 11.6666 18.3333H8.33329C5.19059 18.3333 3.61925 18.3333 2.64293 17.357C1.66663 16.3807 1.66663 14.8093 1.66663 11.6666V5.79142Z" fill="#1C274C"/>
<path d="M16.6667 5.19793C16.666 4.95013 16.6625 4.80219 16.6455 4.67368C16.4979 3.55185 15.6151 2.66908 14.4933 2.52139C14.3308 2.5 14.1373 2.5 13.7503 2.5H8.32361C8.42021 2.5866 8.52896 2.69537 8.70837 2.87479L9.16696 3.33333C9.84679 4.01315 10.1866 4.35306 10.5937 4.57952C10.8173 4.70392 11.0545 4.80217 11.3005 4.87232C11.7485 5 12.2292 5 13.1906 5H13.502C14.9845 5 15.9661 5 16.6667 5.19793Z" fill="#1C274C"/>
<path fill-rule="evenodd" clip-rule="evenodd" d="M10.2084 8.33337C10.2084 7.9882 10.4882 7.70837 10.8334 7.70837H15C15.3452 7.70837 15.625 7.9882 15.625 8.33337C15.625 8.67854 15.3452 8.95837 15 8.95837H10.8334C10.4882 8.95837 10.2084 8.67854 10.2084 8.33337Z" fill="#1C274C"/>
</svg>
