<svg width="16" height="16" viewBox="0 0 16 16" fill="none" xmlns="http://www.w3.org/2000/svg">
<path d="M5.64009 7.52661L9.41343 3.75994C9.4754 3.69746 9.54914 3.64786 9.63038 3.61402C9.71162 3.58017 9.79875 3.56274 9.88676 3.56274C9.97477 3.56274 10.0619 3.58017 10.1431 3.61402C10.2244 3.64786 10.2981 3.69746 10.3601 3.75994C10.4843 3.88485 10.554 4.05382 10.554 4.22994C10.554 4.40607 10.4843 4.57503 10.3601 4.69994L7.06009 8.03328L10.3601 11.3333C10.4843 11.4582 10.554 11.6272 10.554 11.8033C10.554 11.9794 10.4843 12.1484 10.3601 12.2733C10.2984 12.3363 10.2247 12.3864 10.1435 12.4207C10.0622 12.455 9.97496 12.4729 9.88676 12.4733C9.79856 12.4729 9.7113 12.455 9.63005 12.4207C9.5488 12.3864 9.47517 12.3363 9.41343 12.2733L5.64009 8.50661C5.57242 8.44418 5.51842 8.36841 5.48148 8.28408C5.44454 8.19975 5.42547 8.10868 5.42547 8.01661C5.42547 7.92454 5.44454 7.83347 5.48148 7.74914C5.51842 7.66481 5.57242 7.58904 5.64009 7.52661Z" fill="#1C274C" fill-opacity="0.5"/>
</svg>
