<svg width="16" height="16" viewBox="0 0 16 16" fill="none" xmlns="http://www.w3.org/2000/svg">
<path d="M5.45325 2.66671H6.85325C7.03006 2.66671 7.19963 2.59647 7.32466 2.47145C7.44968 2.34642 7.51992 2.17685 7.51992 2.00004C7.51992 1.82323 7.44968 1.65366 7.32466 1.52864C7.19963 1.40361 7.03006 1.33337 6.85325 1.33337H5.45325C5.27644 1.33337 5.10687 1.40361 4.98185 1.52864C4.85682 1.65366 4.78658 1.82323 4.78658 2.00004C4.78658 2.17685 4.85682 2.34642 4.98185 2.47145C5.10687 2.59647 5.27644 2.66671 5.45325 2.66671ZM1.99992 7.52004C2.17673 7.52004 2.3463 7.4498 2.47132 7.32478C2.59635 7.19975 2.66659 7.03018 2.66659 6.85337V5.45337C2.66659 5.27656 2.59635 5.10699 2.47132 4.98197C2.3463 4.85695 2.17673 4.78671 1.99992 4.78671C1.82311 4.78671 1.65354 4.85695 1.52851 4.98197C1.40349 5.10699 1.33325 5.27656 1.33325 5.45337V6.85337C1.33325 7.03018 1.40349 7.19975 1.52851 7.32478C1.65354 7.4498 1.82311 7.52004 1.99992 7.52004ZM9.63992 2.66671C9.63992 2.84352 9.71016 3.01309 9.83518 3.13811C9.96021 3.26314 10.1298 3.33337 10.3066 3.33337C10.4834 3.33337 10.653 3.26314 10.778 3.13811C10.903 3.01309 10.9733 2.84352 10.9733 2.66671V2.00004C10.9733 1.82323 10.903 1.65366 10.778 1.52864C10.653 1.40361 10.4834 1.33337 10.3066 1.33337H9.63992C9.46311 1.33337 9.29354 1.40361 9.16851 1.52864C9.04349 1.65366 8.97325 1.82323 8.97325 2.00004C8.97325 2.17685 9.04349 2.34642 9.16851 2.47145C9.29354 2.59647 9.46311 2.66671 9.63992 2.66671ZM13.9999 5.02671H10.9733C10.9733 4.8499 10.903 4.68033 10.778 4.5553C10.653 4.43028 10.4834 4.36004 10.3066 4.36004C10.1298 4.36004 9.96021 4.43028 9.83518 4.5553C9.71016 4.68033 9.63992 4.8499 9.63992 5.02671H5.69325C5.51644 5.02671 5.34687 5.09695 5.22185 5.22197C5.09682 5.34699 5.02659 5.51656 5.02659 5.69337V9.64004C4.84977 9.64004 4.6802 9.71028 4.55518 9.8353C4.43016 9.96033 4.35992 10.1299 4.35992 10.3067C4.35992 10.4835 4.43016 10.6531 4.55518 10.7781C4.6802 10.9031 4.84977 10.9734 5.02659 10.9734V14C5.02659 14.1769 5.09682 14.3464 5.22185 14.4714C5.34687 14.5965 5.51644 14.6667 5.69325 14.6667H13.9999C14.1767 14.6667 14.3463 14.5965 14.4713 14.4714C14.5963 14.3464 14.6666 14.1769 14.6666 14V5.69337C14.6666 5.51656 14.5963 5.34699 14.4713 5.22197C14.3463 5.09695 14.1767 5.02671 13.9999 5.02671ZM13.3333 13.3334H6.35992V10.3134V6.36004H13.3333V13.3334ZM2.66659 1.33337H1.99992C1.82311 1.33337 1.65354 1.40361 1.52851 1.52864C1.40349 1.65366 1.33325 1.82323 1.33325 2.00004V2.66671C1.33325 2.84352 1.40349 3.01309 1.52851 3.13811C1.65354 3.26314 1.82311 3.33337 1.99992 3.33337C2.17673 3.33337 2.3463 3.26314 2.47132 3.13811C2.59635 3.01309 2.66659 2.84352 2.66659 2.66671C2.8434 2.66671 3.01297 2.59647 3.13799 2.47145C3.26301 2.34642 3.33325 2.17685 3.33325 2.00004C3.33325 1.82323 3.26301 1.65366 3.13799 1.52864C3.01297 1.40361 2.8434 1.33337 2.66659 1.33337ZM2.66659 9.64004C2.66659 9.46323 2.59635 9.29366 2.47132 9.16864C2.3463 9.04361 2.17673 8.97337 1.99992 8.97337C1.82311 8.97337 1.65354 9.04361 1.52851 9.16864C1.40349 9.29366 1.33325 9.46323 1.33325 9.64004V10.3067C1.33325 10.4835 1.40349 10.6531 1.52851 10.7781C1.65354 10.9031 1.82311 10.9734 1.99992 10.9734H2.66659C2.8434 10.9734 3.01297 10.9031 3.13799 10.7781C3.26301 10.6531 3.33325 10.4835 3.33325 10.3067C3.33325 10.1299 3.26301 9.96033 3.13799 9.8353C3.01297 9.71028 2.8434 9.64004 2.66659 9.64004Z" fill="#1C274C" fill-opacity="0.5"/>
</svg>
