<svg width="16" height="16" viewBox="0 0 16 16" fill="none" xmlns="http://www.w3.org/2000/svg">
<path d="M7.29332 4.05329C7.52717 4.01745 7.76342 3.99962 7.99999 3.99996C10.12 3.99996 12.1133 5.52663 13.2733 7.99996C13.0959 8.37636 12.8955 8.74149 12.6733 9.09329C12.6028 9.2025 12.5657 9.32995 12.5667 9.45996C12.5681 9.60545 12.6172 9.74646 12.7063 9.86148C12.7954 9.97649 12.9197 10.0592 13.0602 10.097C13.2007 10.1347 13.3497 10.1255 13.4845 10.0707C13.6193 10.0158 13.7324 9.91843 13.8067 9.79329C14.1173 9.30525 14.3871 8.7924 14.6133 8.25996C14.6491 8.17678 14.6675 8.08718 14.6675 7.99663C14.6675 7.90608 14.6491 7.81648 14.6133 7.73329C13.2667 4.60663 10.7333 2.66663 7.99999 2.66663C7.6871 2.66505 7.37471 2.69183 7.06666 2.74663C6.97911 2.76151 6.89535 2.79349 6.82016 2.84075C6.74497 2.888 6.67983 2.9496 6.62845 3.02203C6.57707 3.09446 6.54045 3.1763 6.5207 3.26288C6.50095 3.34946 6.49844 3.43908 6.51332 3.52663C6.52821 3.61418 6.56019 3.69793 6.60744 3.77312C6.6547 3.84831 6.7163 3.91346 6.78873 3.96484C6.86116 4.01622 6.943 4.05283 7.02958 4.07258C7.11615 4.09234 7.20578 4.09484 7.29332 4.07996V4.05329ZM2.47332 1.52663C2.41117 1.46447 2.33737 1.41516 2.25616 1.38152C2.17494 1.34788 2.0879 1.33057 1.99999 1.33057C1.91209 1.33057 1.82504 1.34788 1.74383 1.38152C1.66261 1.41516 1.58882 1.46447 1.52666 1.52663C1.40112 1.65216 1.3306 1.82243 1.3306 1.99996C1.3306 2.1775 1.40112 2.34776 1.52666 2.47329L3.59332 4.53329C2.65037 5.44098 1.8999 6.52929 1.38666 7.73329C1.34995 7.8174 1.331 7.90819 1.331 7.99996C1.331 8.09173 1.34995 8.18252 1.38666 8.26663C2.73332 11.3933 5.26666 13.3333 7.99999 13.3333C9.19806 13.325 10.3678 12.9683 11.3667 12.3066L13.5267 14.4733C13.5886 14.5358 13.6624 14.5854 13.7436 14.6192C13.8248 14.6531 13.912 14.6705 14 14.6705C14.088 14.6705 14.1751 14.6531 14.2564 14.6192C14.3376 14.5854 14.4113 14.5358 14.4733 14.4733C14.5358 14.4113 14.5854 14.3376 14.6193 14.2563C14.6531 14.1751 14.6705 14.088 14.6705 14C14.6705 13.912 14.6531 13.8248 14.6193 13.7436C14.5854 13.6623 14.5358 13.5886 14.4733 13.5266L2.47332 1.52663ZM6.71332 7.65329L8.34666 9.28663C8.23398 9.31894 8.1172 9.33466 7.99999 9.33329C7.64637 9.33329 7.30723 9.19282 7.05718 8.94277C6.80713 8.69272 6.66666 8.35358 6.66666 7.99996C6.66529 7.88275 6.68101 7.76597 6.71332 7.65329ZM7.99999 12C5.87999 12 3.88666 10.4733 2.73332 7.99996C3.16405 7.04913 3.77537 6.19101 4.53332 5.47329L5.71332 6.66663C5.43616 7.17249 5.33048 7.75459 5.41216 8.3256C5.49384 8.89661 5.75847 9.42574 6.16634 9.83361C6.57422 10.2415 7.10335 10.5061 7.67435 10.5878C8.24536 10.6695 8.82746 10.5638 9.33332 10.2866L10.3933 11.3333C9.66739 11.7605 8.84227 11.9904 7.99999 12Z" fill="#1C274C" fill-opacity="0.5"/>
</svg>
