<svg width="14" height="14" viewBox="0 0 14 14" fill="none" xmlns="http://www.w3.org/2000/svg">
<path d="M9.5024 5.08079L10.8441 6.41663L5.2499 6.41663C5.09519 6.41663 4.94682 6.47808 4.83742 6.58748C4.72802 6.69688 4.66656 6.84525 4.66656 6.99996C4.66656 7.15467 4.72802 7.30304 4.83742 7.41244C4.94682 7.52183 5.09519 7.58329 5.2499 7.58329L10.8441 7.58329L9.5024 8.91913C9.44772 8.97335 9.40433 9.03787 9.37471 9.10896C9.3451 9.18004 9.32985 9.25629 9.32985 9.33329C9.32985 9.4103 9.3451 9.48654 9.37471 9.55763C9.40433 9.62871 9.44772 9.69323 9.5024 9.74746C9.55663 9.80213 9.62114 9.84553 9.69223 9.87515C9.76331 9.90476 9.83956 9.92001 9.91656 9.92001C9.99357 9.92001 10.0698 9.90476 10.1409 9.87515C10.212 9.84553 10.2765 9.80213 10.3307 9.74746L12.6641 7.41413C12.7172 7.35865 12.7588 7.29323 12.7866 7.22163C12.8449 7.07961 12.8449 6.92031 12.7866 6.77829C12.7588 6.70669 12.7172 6.64127 12.6641 6.58579L10.3307 4.25246C10.2763 4.19807 10.2118 4.15493 10.1407 4.12549C10.0696 4.09606 9.99348 4.08091 9.91656 4.08091C9.83965 4.08091 9.76348 4.09606 9.69242 4.12549C9.62136 4.15493 9.55679 4.19807 9.5024 4.25246C9.44801 4.30685 9.40486 4.37142 9.37543 4.44248C9.34599 4.51354 9.33084 4.58971 9.33084 4.66663C9.33084 4.74354 9.34599 4.81971 9.37543 4.89077C9.40486 4.96183 9.44801 5.0264 9.5024 5.08079ZM5.83323 12.25C5.83323 12.0952 5.77177 11.9469 5.66238 11.8375C5.55298 11.7281 5.40461 11.6666 5.2499 11.6666L2.91656 11.6666C2.76185 11.6666 2.61348 11.6052 2.50408 11.4958C2.39469 11.3864 2.33323 11.238 2.33323 11.0833L2.33323 2.91663C2.33323 2.76192 2.39469 2.61354 2.50408 2.50415C2.61348 2.39475 2.76186 2.33329 2.91656 2.33329L5.2499 2.33329C5.40461 2.33329 5.55298 2.27183 5.66238 2.16244C5.77177 2.05304 5.83323 1.90467 5.83323 1.74996C5.83323 1.59525 5.77177 1.44688 5.66238 1.33748C5.55298 1.22808 5.40461 1.16663 5.2499 1.16663L2.91656 1.16663C2.45244 1.16663 2.00732 1.351 1.67913 1.67919C1.35094 2.00738 1.16656 2.4525 1.16656 2.91663L1.16656 11.0833C1.16656 11.5474 1.35094 11.9925 1.67913 12.3207C2.00732 12.6489 2.45243 12.8333 2.91656 12.8333L5.2499 12.8333C5.40461 12.8333 5.55298 12.7718 5.66238 12.6624C5.77177 12.553 5.83323 12.4047 5.83323 12.25Z" fill="#1C274C" fill-opacity="0.5"/>
</svg>
