<svg width="16" height="16" viewBox="0 0 16 16" fill="none" xmlns="http://www.w3.org/2000/svg">
<path d="M14.2133 6.36671L12.9533 5.94671L13.5466 4.76004C13.6067 4.63583 13.6269 4.49602 13.6042 4.35989C13.5815 4.22376 13.5171 4.09803 13.4199 4.00004L11.9999 2.58004C11.9014 2.48143 11.7745 2.41618 11.637 2.39346C11.4994 2.37074 11.3582 2.39169 11.2333 2.45338L10.0466 3.04671L9.62659 1.78671C9.58223 1.65537 9.49803 1.54113 9.38572 1.45987C9.2734 1.37862 9.13854 1.33441 8.99992 1.33338H6.99992C6.86016 1.33302 6.72382 1.37659 6.61017 1.45794C6.49652 1.53929 6.41131 1.6543 6.36659 1.78671L5.94659 3.04671L4.75992 2.45338C4.63571 2.39323 4.4959 2.37311 4.35977 2.3958C4.22364 2.41849 4.09791 2.48286 3.99992 2.58004L2.57992 4.00004C2.48131 4.09855 2.41606 4.22549 2.39334 4.36301C2.37062 4.50053 2.39157 4.64172 2.45325 4.76671L3.04659 5.95338L1.78659 6.37338C1.65525 6.41773 1.541 6.50193 1.45975 6.61425C1.3785 6.72657 1.33428 6.86142 1.33325 7.00004V9.00004C1.33289 9.1398 1.37647 9.27615 1.45782 9.38979C1.53916 9.50344 1.65417 9.58865 1.78659 9.63338L3.04659 10.0534L2.45325 11.24C2.39311 11.3643 2.37299 11.5041 2.39568 11.6402C2.41837 11.7763 2.48274 11.9021 2.57992 12L3.99992 13.42C4.09843 13.5187 4.22537 13.5839 4.36289 13.6066C4.50041 13.6293 4.64159 13.6084 4.76659 13.5467L5.95325 12.9534L6.37325 14.2134C6.41798 14.3458 6.50319 14.4608 6.61683 14.5421C6.73048 14.6235 6.86682 14.6671 7.00659 14.6667H9.00659C9.14635 14.6671 9.28269 14.6235 9.39634 14.5421C9.50999 14.4608 9.5952 14.3458 9.63992 14.2134L10.0599 12.9534L11.2466 13.5467C11.37 13.6053 11.5085 13.6246 11.6432 13.602C11.7779 13.5793 11.9025 13.5158 11.9999 13.42L13.4199 12C13.5185 11.9015 13.5838 11.7746 13.6065 11.6371C13.6292 11.4996 13.6083 11.3584 13.5466 11.2334L12.9533 10.0467L14.2133 9.62671C14.3446 9.58235 14.4588 9.49816 14.5401 9.38584C14.6213 9.27352 14.6656 9.13866 14.6666 9.00004V7.00004C14.6669 6.86028 14.6234 6.72394 14.542 6.61029C14.4607 6.49664 14.3457 6.41143 14.2133 6.36671ZM13.3333 8.52004L12.5333 8.78671C12.3493 8.84638 12.1805 8.94536 12.0386 9.07678C11.8967 9.20819 11.7851 9.36891 11.7116 9.54776C11.638 9.72662 11.6042 9.91934 11.6126 10.1126C11.6209 10.3058 11.6712 10.4949 11.7599 10.6667L12.1399 11.4267L11.4066 12.16L10.6666 11.76C10.4956 11.6749 10.3084 11.6274 10.1175 11.6209C9.92657 11.6144 9.7365 11.649 9.56013 11.7223C9.38376 11.7956 9.22521 11.906 9.0952 12.0459C8.96519 12.1859 8.86677 12.3521 8.80659 12.5334L8.53992 13.3334H7.47992L7.21325 12.5334C7.15358 12.3494 7.0546 12.1806 6.92319 12.0387C6.79177 11.8969 6.63106 11.7853 6.4522 11.7117C6.27334 11.6381 6.08062 11.6043 5.8874 11.6127C5.69419 11.621 5.5051 11.6713 5.33325 11.76L4.57325 12.14L3.83992 11.4067L4.23992 10.6667C4.32865 10.4949 4.37893 10.3058 4.38728 10.1126C4.39563 9.91934 4.36185 9.72662 4.28828 9.54776C4.21471 9.36891 4.10311 9.20819 3.96122 9.07678C3.81933 8.94536 3.65055 8.84638 3.46659 8.78671L2.66659 8.52004V7.48004L3.46659 7.21338C3.65055 7.1537 3.81933 7.05473 3.96122 6.92331C4.10311 6.79189 4.21471 6.63118 4.28828 6.45232C4.36185 6.27347 4.39563 6.08074 4.38728 5.88753C4.37893 5.69431 4.32865 5.50522 4.23992 5.33338L3.85992 4.59338L4.59325 3.86004L5.33325 4.24004C5.5051 4.32877 5.69419 4.37906 5.8874 4.38741C6.08062 4.39576 6.27334 4.36197 6.4522 4.2884C6.63106 4.21483 6.79177 4.10323 6.92319 3.96134C7.0546 3.81945 7.15358 3.65067 7.21325 3.46671L7.47992 2.66671H8.51992L8.78659 3.46671C8.84626 3.65067 8.94524 3.81945 9.07665 3.96134C9.20807 4.10323 9.36878 4.21483 9.54764 4.2884C9.7265 4.36197 9.91922 4.39576 10.1124 4.38741C10.3057 4.37906 10.4947 4.32877 10.6666 4.24004L11.4266 3.86004L12.1599 4.59338L11.7599 5.33338C11.6747 5.50434 11.6273 5.69161 11.6208 5.8825C11.6143 6.0734 11.6489 6.26346 11.7222 6.43983C11.7955 6.6162 11.9059 6.77475 12.0458 6.90476C12.1857 7.03477 12.352 7.1332 12.5333 7.19338L13.3333 7.46004V8.52004ZM7.99992 5.33338C7.4725 5.33338 6.95693 5.48977 6.5184 5.78279C6.07987 6.07581 5.73808 6.49228 5.53624 6.97955C5.33441 7.46682 5.2816 8.003 5.38449 8.52028C5.48739 9.03757 5.74136 9.51272 6.1143 9.88566C6.48724 10.2586 6.9624 10.5126 7.47968 10.6155C7.99696 10.7184 8.53314 10.6656 9.02041 10.4637C9.50768 10.2619 9.92416 9.92009 10.2172 9.48156C10.5102 9.04303 10.6666 8.52746 10.6666 8.00004C10.6666 7.2928 10.3856 6.61452 9.88554 6.11442C9.38544 5.61433 8.70716 5.33338 7.99992 5.33338ZM7.99992 9.33337C7.73621 9.33337 7.47843 9.25518 7.25916 9.10867C7.03989 8.96216 6.869 8.75392 6.76808 8.51029C6.66716 8.26665 6.64076 7.99856 6.69221 7.73992C6.74365 7.48128 6.87064 7.2437 7.05711 7.05723C7.24358 6.87076 7.48116 6.74378 7.7398 6.69233C7.99844 6.64088 8.26653 6.66729 8.51016 6.7682C8.7538 6.86912 8.96204 7.04002 9.10855 7.25928C9.25505 7.47855 9.33325 7.73633 9.33325 8.00004C9.33325 8.35366 9.19278 8.6928 8.94273 8.94285C8.69268 9.1929 8.35354 9.33337 7.99992 9.33337Z" fill="#1C274C" fill-opacity="0.5"/>
</svg>
