<svg width="16" height="16" viewBox="0 0 16 16" fill="none" xmlns="http://www.w3.org/2000/svg">
<path d="M11.3333 8.94L8.47334 6.11334C8.41136 6.05085 8.33763 6.00125 8.25639 5.96741C8.17515 5.93356 8.08801 5.91614 8.00001 5.91614C7.912 5.91614 7.82486 5.93356 7.74362 5.96741C7.66238 6.00125 7.58865 6.05085 7.52667 6.11334L4.70001 8.94C4.63752 9.00198 4.58792 9.07571 4.55408 9.15695C4.52023 9.23819 4.50281 9.32533 4.50281 9.41334C4.50281 9.50134 4.52023 9.58848 4.55408 9.66972C4.58792 9.75096 4.63752 9.82469 4.70001 9.88667C4.82491 10.0108 4.99388 10.0805 5.17001 10.0805C5.34613 10.0805 5.5151 10.0108 5.64001 9.88667L8.00001 7.52667L10.36 9.88667C10.4842 10.0098 10.6518 10.0793 10.8267 10.08C10.9144 10.0805 11.0014 10.0637 11.0826 10.0305C11.1638 9.99734 11.2377 9.94846 11.3 9.88667C11.3647 9.82692 11.417 9.75495 11.4537 9.6749C11.4904 9.59485 11.5109 9.50831 11.514 9.42029C11.5171 9.33226 11.5028 9.2445 11.4718 9.16206C11.4407 9.07963 11.3937 9.00415 11.3333 8.94Z" fill="#1C274C"/>
</svg>
